<svg width="169" height="138" viewBox="0 0 169 138" fill="none" xmlns="http://www.w3.org/2000/svg">
<g id="Verify Icon">
<path id="Vector" d="M168.667 83.7424C168.052 84.4413 167.437 85.1402 166.779 85.7954C149.965 102.525 133.195 119.212 116.381 135.941C113.615 138.693 112.123 138.693 109.313 135.898C83.6309 110.344 57.949 84.7908 32.2671 59.2372C29.4574 56.4416 29.4574 54.9565 32.2232 52.2046C49.0371 35.431 65.895 18.7011 82.7529 1.97115C85.387 -0.649724 86.9674 -0.649724 89.5575 1.92747C98.8645 11.1879 108.171 20.4483 117.478 29.7087C117.961 30.1892 118.4 30.6697 118.752 31.1939C119.717 32.6791 119.498 34.3389 118.225 35.5183C117.039 36.654 115.283 36.8288 113.835 35.8241C113.308 35.431 112.825 34.9505 112.386 34.5137C105.625 27.7868 98.8645 21.1035 92.1477 14.3766C91.7087 13.9398 91.3575 13.372 90.9623 12.8478C90.0843 13.503 90.3477 14.0709 90.3477 14.595C90.3477 32.8101 90.3477 51.0689 90.3477 69.2839C90.3477 74.613 93.8598 78.1075 99.2157 78.1075C117.522 78.1075 135.873 78.1075 154.179 78.1075C154.662 78.1075 155.145 78.2386 155.628 77.9328C155.54 77.1902 154.926 76.8845 154.487 76.4476C147.463 69.4586 140.438 62.4697 133.414 55.4807C132.888 54.9565 132.317 54.3886 131.878 53.7771C130.912 52.3793 131.132 50.632 132.361 49.4526C133.502 48.3169 135.17 48.1422 136.575 49.0595C137.146 49.4527 137.673 49.9331 138.2 50.4573C147.77 59.9798 157.384 69.5023 166.955 79.0685C167.525 79.6364 168.052 80.2916 168.623 80.8595C168.667 81.7768 168.667 82.7377 168.667 83.7424ZM109.269 125.283C109.269 125.327 109.313 125.109 109.313 124.89C109.313 112.135 109.313 99.3366 109.357 86.5817C109.357 85.4023 108.83 85.0965 107.732 85.0965C104.791 85.1402 101.806 85.1402 98.8645 85.0965C91.094 84.9655 84.8162 79.549 83.587 71.9048C83.0163 68.4103 83.4114 64.9158 83.3236 61.4213C83.2797 59.1936 83.3236 59.1936 81.1725 59.1936C68.8803 59.1936 56.5881 59.1936 44.2959 59.1936C43.769 59.1936 43.1983 59.0188 42.9349 59.2372C65.0609 81.2526 87.1869 103.268 109.269 125.283ZM42.7593 52.1172C42.9788 52.1609 43.1983 52.2046 43.4178 52.2046C56.193 52.2046 68.9681 52.2046 81.7871 52.2482C83.3675 52.2482 83.3675 51.4183 83.3675 50.2826C83.3675 37.9645 83.3675 25.6027 83.3236 13.2846C83.3236 12.8041 83.587 12.1926 83.1919 11.9305C69.7144 25.2969 56.2808 38.6634 42.7593 52.1172ZM156.989 85.1839C156.638 85.1402 156.287 85.0965 155.935 85.0965C143.38 85.0965 130.824 85.0965 118.225 85.0528C116.732 85.0528 116.381 85.6207 116.425 86.9748C116.469 99.2929 116.425 111.655 116.469 123.973C116.469 124.497 116.249 125.065 116.6 125.371C129.99 112.048 143.424 98.6814 156.989 85.1839Z" fill="#1C445F"/>
<path id="Vector_2" d="M35.516 113.97C28.1845 113.97 20.8092 113.97 13.4778 113.97C12.8632 113.97 12.2486 114.014 11.6779 113.927C10.0535 113.665 8.91211 112.267 8.91211 110.563C8.91211 108.859 10.0974 107.505 11.7218 107.243C12.1169 107.199 12.4681 107.199 12.8632 107.199C27.965 107.199 43.023 107.199 58.1248 107.199C58.7394 107.199 59.3541 107.243 59.9248 107.418C61.5052 107.942 62.3832 109.515 62.0759 111.218C61.8125 112.835 60.4955 113.97 58.6955 113.97C54.7006 114.014 50.7056 113.97 46.6667 113.97C42.9791 114.014 39.2475 113.97 35.516 113.97Z" fill="#1C445F"/>
<path id="Vector_3" d="M13.0824 68.2343C16.1555 68.2343 19.2285 68.2343 22.3016 68.2343C24.6283 68.2343 26.1209 69.5885 26.1648 71.598C26.2087 73.5638 24.6722 75.0054 22.3894 75.0054C16.1994 75.0054 10.0094 75.0054 3.81936 75.0054C1.44872 75.0054 0.0439007 73.6948 0 71.6417C0 69.5011 1.40482 68.2343 3.90717 68.2343C6.98022 68.1906 10.0533 68.2343 13.0824 68.2343Z" fill="#1C445F"/>
<path id="Vector_4" d="M35.1199 93.0036C32.1786 93.0036 29.1933 93.0036 26.252 93.0036C23.9253 93.0036 22.4326 91.6056 22.4765 89.5961C22.4765 87.5867 23.9692 86.2324 26.2959 86.2324C32.1786 86.2324 38.0174 86.2324 43.9001 86.2324C46.1829 86.2324 47.7634 87.5867 47.8073 89.5525C47.8512 91.562 46.2268 93.0036 43.8562 93.0036C40.9148 93.0472 38.0174 93.0036 35.1199 93.0036Z" fill="#1C445F"/>
<path id="Vector_5" d="M30.8612 40.5864C28.9296 40.5864 27.0419 40.5864 25.1103 40.5864C22.8274 40.5427 21.247 39.1885 21.247 37.2663C21.2031 35.3442 22.7835 33.8589 25.0224 33.8589C28.9735 33.8153 32.9246 33.8153 36.8317 33.8589C39.0707 33.8589 40.6511 35.3005 40.6072 37.2663C40.5633 39.2322 39.0268 40.5864 36.7439 40.6301C34.8123 40.6301 32.8368 40.5864 30.8612 40.5864Z" fill="#1C445F"/>
<path id="Vector_6" d="M8.69235 40.5851C6.93632 40.5851 5.18029 40.6288 3.42426 40.5851C1.36092 40.5415 0 39.1435 0 37.1777C0 35.2119 1.36092 33.8577 3.46816 33.814C6.93632 33.7703 10.3606 33.7703 13.8287 33.814C15.936 33.8577 17.2969 35.1682 17.3408 37.1341C17.3847 39.1435 15.9799 40.5415 13.7848 40.5851C12.0727 40.6288 10.3606 40.5851 8.69235 40.5851Z" fill="#1C445F"/>
<path id="Vector_7" d="M129.245 42.8586C129.289 44.6933 127.664 46.3534 125.821 46.3534C123.977 46.3534 122.352 44.7807 122.308 42.9459C122.265 41.1112 123.933 39.4949 125.733 39.4512C127.62 39.4512 129.201 40.9801 129.245 42.8586Z" fill="#1C445F"/>
<path id="Vector_8" d="M32.619 68.2334C34.4629 68.2771 35.9994 69.8061 35.9555 71.5971C35.9555 73.563 34.3312 75.0482 32.3117 75.0045C30.424 74.9609 28.8875 73.3445 28.9753 71.4661C29.107 69.5876 30.6874 68.1897 32.619 68.2334Z" fill="#1C445F"/>
</g>
</svg>
